<svg id="visual" viewBox="0 0 900 600" width="900" height="600" xmlns="http://www.w3.org/2000/svg" xmlns:xlink="http://www.w3.org/1999/xlink" version="1.1"><rect x="0" y="0" width="900" height="600" fill="#001122"></rect><defs><linearGradient id="grad1_0" x1="33.3%" y1="0%" x2="100%" y2="100%"><stop offset="20%" stop-color="#009473" stop-opacity="1"></stop><stop offset="80%" stop-color="#009473" stop-opacity="1"></stop></linearGradient></defs><defs><linearGradient id="grad1_1" x1="33.3%" y1="0%" x2="100%" y2="100%"><stop offset="20%" stop-color="#009473" stop-opacity="1"></stop><stop offset="80%" stop-color="#008173" stop-opacity="1"></stop></linearGradient></defs><defs><linearGradient id="grad1_2" x1="33.3%" y1="0%" x2="100%" y2="100%"><stop offset="20%" stop-color="#006d6f" stop-opacity="1"></stop><stop offset="80%" stop-color="#008173" stop-opacity="1"></stop></linearGradient></defs><defs><linearGradient id="grad1_3" x1="33.3%" y1="0%" x2="100%" y2="100%"><stop offset="20%" stop-color="#006d6f" stop-opacity="1"></stop><stop offset="80%" stop-color="#005966" stop-opacity="1"></stop></linearGradient></defs><defs><linearGradient id="grad1_4" x1="33.3%" y1="0%" x2="100%" y2="100%"><stop offset="20%" stop-color="#004659" stop-opacity="1"></stop><stop offset="80%" stop-color="#005966" stop-opacity="1"></stop></linearGradient></defs><defs><linearGradient id="grad1_5" x1="33.3%" y1="0%" x2="100%" y2="100%"><stop offset="20%" stop-color="#004659" stop-opacity="1"></stop><stop offset="80%" stop-color="#003349" stop-opacity="1"></stop></linearGradient></defs><defs><linearGradient id="grad1_6" x1="33.3%" y1="0%" x2="100%" y2="100%"><stop offset="20%" stop-color="#002236" stop-opacity="1"></stop><stop offset="80%" stop-color="#003349" stop-opacity="1"></stop></linearGradient></defs><defs><linearGradient id="grad1_7" x1="33.3%" y1="0%" x2="100%" y2="100%"><stop offset="20%" stop-color="#002236" stop-opacity="1"></stop><stop offset="80%" stop-color="#001122" stop-opacity="1"></stop></linearGradient></defs><defs><linearGradient id="grad2_0" x1="0%" y1="0%" x2="66.7%" y2="100%"><stop offset="20%" stop-color="#009473" stop-opacity="1"></stop><stop offset="80%" stop-color="#009473" stop-opacity="1"></stop></linearGradient></defs><defs><linearGradient id="grad2_1" x1="0%" y1="0%" x2="66.7%" y2="100%"><stop offset="20%" stop-color="#008173" stop-opacity="1"></stop><stop offset="80%" stop-color="#009473" stop-opacity="1"></stop></linearGradient></defs><defs><linearGradient id="grad2_2" x1="0%" y1="0%" x2="66.7%" y2="100%"><stop offset="20%" stop-color="#008173" stop-opacity="1"></stop><stop offset="80%" stop-color="#006d6f" stop-opacity="1"></stop></linearGradient></defs><defs><linearGradient id="grad2_3" x1="0%" y1="0%" x2="66.7%" y2="100%"><stop offset="20%" stop-color="#005966" stop-opacity="1"></stop><stop offset="80%" stop-color="#006d6f" stop-opacity="1"></stop></linearGradient></defs><defs><linearGradient id="grad2_4" x1="0%" y1="0%" x2="66.7%" y2="100%"><stop offset="20%" stop-color="#005966" stop-opacity="1"></stop><stop offset="80%" stop-color="#004659" stop-opacity="1"></stop></linearGradient></defs><defs><linearGradient id="grad2_5" x1="0%" y1="0%" x2="66.7%" y2="100%"><stop offset="20%" stop-color="#003349" stop-opacity="1"></stop><stop offset="80%" stop-color="#004659" stop-opacity="1"></stop></linearGradient></defs><defs><linearGradient id="grad2_6" x1="0%" y1="0%" x2="66.7%" y2="100%"><stop offset="20%" stop-color="#003349" stop-opacity="1"></stop><stop offset="80%" stop-color="#002236" stop-opacity="1"></stop></linearGradient></defs><defs><linearGradient id="grad2_7" x1="0%" y1="0%" x2="66.7%" y2="100%"><stop offset="20%" stop-color="#001122" stop-opacity="1"></stop><stop offset="80%" stop-color="#002236" stop-opacity="1"></stop></linearGradient></defs><g transform="translate(900, 0)"><path d="M0 540.8C-18.9 520.8 -37.7 500.7 -61.4 505.3C-85 509.9 -113.4 539.1 -129.4 525.1C-145.5 511.1 -149.1 453.9 -166 437.6C-182.8 421.3 -212.7 445.9 -232.8 443.6C-253 441.4 -263.3 412.2 -259 375.3C-254.8 338.3 -236 293.6 -253.3 285.9C-270.6 278.3 -324 307.8 -338.3 299.7C-352.6 291.6 -327.9 245.9 -311.1 214.7C-294.3 183.5 -285.5 166.9 -311.7 163.6C-337.8 160.3 -398.9 170.2 -435.7 165.2C-472.5 160.3 -485 140.3 -487.4 120.1C-489.8 99.9 -482.2 79.5 -489.4 59.4C-496.6 39.4 -518.7 19.7 -540.8 0L0 0Z" fill="#001a2c"></path><path d="M0 473.2C-16.5 455.7 -33 438.1 -53.7 442.1C-74.4 446.1 -99.2 471.7 -113.3 459.5C-127.3 447.2 -130.5 397.2 -145.2 382.9C-159.9 368.6 -186.1 390.1 -203.7 388.2C-221.3 386.2 -230.4 360.7 -226.7 328.4C-223 296 -206.5 256.9 -221.6 250.2C-236.8 243.5 -283.5 269.4 -296 262.3C-308.6 255.2 -286.9 215.2 -272.2 187.9C-257.5 160.6 -249.8 146 -272.7 143.1C-295.6 140.2 -349.1 148.9 -381.3 144.6C-413.4 140.2 -424.4 122.8 -426.5 105.1C-428.6 87.4 -421.9 69.6 -428.2 52C-434.6 34.4 -453.9 17.2 -473.2 0L0 0Z" fill="#002b40"></path><path d="M0 405.6C-14.1 390.6 -28.3 375.5 -46 379C-63.7 382.4 -85 404.3 -97.1 393.8C-109.1 383.3 -111.9 340.4 -124.5 328.2C-137.1 316 -159.5 334.4 -174.6 332.7C-189.7 331 -197.5 309.2 -194.3 281.5C-191.1 253.7 -177 220.2 -190 214.4C-203 208.7 -243 230.9 -253.7 224.8C-264.5 218.7 -245.9 184.4 -233.3 161C-220.7 137.7 -214.1 125.2 -233.8 122.7C-253.4 120.2 -299.2 127.7 -326.8 123.9C-354.4 120.2 -363.7 105.2 -365.6 90.1C-367.4 75 -361.6 59.6 -367.1 44.6C-372.5 29.5 -389 14.8 -405.6 0L0 0Z" fill="#003d52"></path><path d="M0 338C-11.8 325.5 -23.6 312.9 -38.3 315.8C-53.1 318.7 -70.9 336.9 -80.9 328.2C-90.9 319.5 -93.2 283.7 -103.7 273.5C-114.2 263.3 -132.9 278.7 -145.5 277.3C-158.1 275.8 -164.5 257.6 -161.9 234.6C-159.3 211.5 -147.5 183.5 -158.3 178.7C-169.1 173.9 -202.5 192.4 -211.5 187.3C-220.4 182.3 -204.9 153.7 -194.4 134.2C-183.9 114.7 -178.5 104.3 -194.8 102.2C-211.1 100.2 -249.3 106.4 -272.3 103.3C-295.3 100.2 -303.1 87.7 -304.6 75.1C-306.1 62.5 -301.4 49.7 -305.9 37.1C-310.4 24.6 -324.2 12.3 -338 0L0 0Z" fill="#005060"></path><path d="M0 270.4C-9.4 260.4 -18.9 250.4 -30.7 252.6C-42.5 254.9 -56.7 269.6 -64.7 262.6C-72.7 255.6 -74.6 226.9 -83 218.8C-91.4 210.6 -106.3 222.9 -116.4 221.8C-126.5 220.7 -131.6 206.1 -129.5 187.6C-127.4 169.2 -118 146.8 -126.7 143C-135.3 139.2 -162 153.9 -169.2 149.9C-176.3 145.8 -163.9 123 -155.5 107.4C-147.2 91.8 -142.8 83.5 -155.8 81.8C-168.9 80.1 -199.5 85.1 -217.9 82.6C-236.3 80.1 -242.5 70.2 -243.7 60.1C-244.9 50 -241.1 39.7 -244.7 29.7C-248.3 19.7 -259.4 9.8 -270.4 0L0 0Z" fill="#00636b"></path><path d="M0 202.8C-7.1 195.3 -14.1 187.8 -23 189.5C-31.9 191.2 -42.5 202.2 -48.5 196.9C-54.6 191.7 -55.9 170.2 -62.2 164.1C-68.5 158 -79.8 167.2 -87.3 166.4C-94.9 165.5 -98.7 154.6 -97.1 140.7C-95.6 126.9 -88.5 110.1 -95 107.2C-101.5 104.4 -121.5 115.4 -126.9 112.4C-132.2 109.4 -122.9 92.2 -116.7 80.5C-110.4 68.8 -107.1 62.6 -116.9 61.3C-126.7 60.1 -149.6 63.8 -163.4 62C-177.2 60.1 -181.9 52.6 -182.8 45.1C-183.7 37.5 -180.8 29.8 -183.5 22.3C-186.2 14.8 -194.5 7.4 -202.8 0L0 0Z" fill="#007772"></path><path d="M0 135.2C-4.7 130.2 -9.4 125.2 -15.3 126.3C-21.2 127.5 -28.3 134.8 -32.4 131.3C-36.4 127.8 -37.3 113.5 -41.5 109.4C-45.7 105.3 -53.2 111.5 -58.2 110.9C-63.2 110.3 -65.8 103.1 -64.8 93.8C-63.7 84.6 -59 73.4 -63.3 71.5C-67.7 69.6 -81 77 -84.6 74.9C-88.2 72.9 -82 61.5 -77.8 53.7C-73.6 45.9 -71.4 41.7 -77.9 40.9C-84.5 40.1 -99.7 42.6 -108.9 41.3C-118.1 40.1 -121.2 35.1 -121.9 30C-122.5 25 -120.5 19.9 -122.4 14.9C-124.2 9.8 -129.7 4.9 -135.2 0L0 0Z" fill="#008a73"></path><path d="M0 67.6C-2.4 65.1 -4.7 62.6 -7.7 63.2C-10.6 63.7 -14.2 67.4 -16.2 65.6C-18.2 63.9 -18.6 56.7 -20.7 54.7C-22.8 52.7 -26.6 55.7 -29.1 55.5C-31.6 55.2 -32.9 51.5 -32.4 46.9C-31.9 42.3 -29.5 36.7 -31.7 35.7C-33.8 34.8 -40.5 38.5 -42.3 37.5C-44.1 36.5 -41 30.7 -38.9 26.8C-36.8 22.9 -35.7 20.9 -39 20.4C-42.2 20 -49.9 21.3 -54.5 20.7C-59.1 20 -60.6 17.5 -60.9 15C-61.2 12.5 -60.3 9.9 -61.2 7.4C-62.1 4.9 -64.8 2.5 -67.6 0L0 0Z" fill="#009473"></path></g><g transform="translate(0, 600)"><path d="M0 -540.8C19.9 -525.9 39.7 -511 62.3 -513.2C84.9 -515.5 110.2 -535 129.4 -525.1C148.7 -515.2 162 -476 163.8 -432C165.7 -388 156.1 -339.1 183.6 -349.8C211.1 -360.4 275.7 -430.4 302.8 -438.7C329.9 -446.9 319.4 -393.3 321.6 -363C323.8 -332.8 338.6 -325.8 358.5 -317.6C378.5 -309.5 403.7 -300.2 403.3 -278.4C402.8 -256.5 376.8 -222.2 396.7 -208.2C416.6 -194.2 482.4 -200.6 483.4 -183.3C484.5 -166.1 420.8 -125.3 414.6 -102.2C408.4 -79.1 459.8 -73.6 490.4 -59.5C521 -45.5 530.9 -22.7 540.8 0L0 0Z" fill="#001a2c"></path><path d="M0 -473.2C17.4 -460.2 34.8 -447.1 54.5 -449.1C74.3 -451.1 96.4 -468.1 113.3 -459.5C130.1 -450.8 141.7 -416.5 143.3 -378C145 -339.5 136.6 -296.7 160.6 -306C184.7 -315.3 241.2 -376.6 264.9 -383.8C288.6 -391 279.5 -344.1 281.4 -317.6C283.3 -291.2 296.2 -285.1 313.7 -277.9C331.2 -270.8 353.2 -262.7 352.9 -243.6C352.5 -224.5 329.7 -194.4 347.1 -182.2C364.5 -169.9 422.1 -175.5 423 -160.4C423.9 -145.3 368.2 -109.6 362.8 -89.4C357.4 -69.2 402.3 -64.4 429.1 -52.1C455.9 -39.8 464.6 -19.9 473.2 0L0 0Z" fill="#002b40"></path><path d="M0 -405.6C14.9 -394.4 29.8 -383.2 46.7 -384.9C63.7 -386.6 82.6 -401.2 97.1 -393.8C111.5 -386.4 121.5 -357 122.9 -324C124.2 -291 117 -254.4 137.7 -262.3C158.3 -270.3 206.8 -322.8 227.1 -329C247.4 -335.2 239.6 -295 241.2 -272.3C242.8 -249.6 253.9 -244.3 268.9 -238.2C283.9 -232.1 302.8 -225.1 302.4 -208.8C302.1 -192.4 282.6 -166.6 297.5 -156.1C312.4 -145.7 361.8 -150.4 362.6 -137.5C363.3 -124.6 315.6 -94 310.9 -76.6C306.3 -59.3 344.8 -55.2 367.8 -44.7C390.8 -34.1 398.2 -17 405.6 0L0 0Z" fill="#003d52"></path><path d="M0 -338C12.4 -328.7 24.8 -319.3 38.9 -320.8C53.1 -322.2 68.8 -334.4 80.9 -328.2C92.9 -322 101.2 -297.5 102.4 -270C103.5 -242.5 97.5 -212 114.7 -218.6C131.9 -225.2 172.3 -269 189.2 -274.2C206.2 -279.3 199.7 -245.8 201 -226.9C202.4 -208 211.6 -203.6 224.1 -198.5C236.6 -193.4 252.3 -187.6 252 -174C251.8 -160.3 235.5 -138.9 247.9 -130.1C260.4 -121.4 301.5 -125.3 302.1 -114.6C302.8 -103.8 263 -78.3 259.1 -63.9C255.3 -49.4 287.4 -46 306.5 -37.2C325.6 -28.4 331.8 -14.2 338 0L0 0Z" fill="#005060"></path><path d="M0 -270.4C9.9 -262.9 19.9 -255.5 31.2 -256.6C42.4 -257.8 55.1 -267.5 64.7 -262.6C74.4 -257.6 81 -238 81.9 -216C82.8 -194 78 -169.6 91.8 -174.9C105.5 -180.2 137.8 -215.2 151.4 -219.3C164.9 -223.4 159.7 -196.7 160.8 -181.5C161.9 -166.4 169.3 -162.9 179.3 -158.8C189.3 -154.7 201.8 -150.1 201.6 -139.2C201.4 -128.3 188.4 -111.1 198.3 -104.1C208.3 -97.1 241.2 -100.3 241.7 -91.7C242.2 -83.1 210.4 -62.7 207.3 -51.1C204.2 -39.5 229.9 -36.8 245.2 -29.8C260.5 -22.7 265.5 -11.4 270.4 0L0 0Z" fill="#00636b"></path><path d="M0 -202.8C7.5 -197.2 14.9 -191.6 23.4 -192.5C31.8 -193.3 41.3 -200.6 48.5 -196.9C55.8 -193.2 60.7 -178.5 61.4 -162C62.1 -145.5 58.5 -127.2 68.8 -131.2C79.2 -135.1 103.4 -161.4 113.5 -164.5C123.7 -167.6 119.8 -147.5 120.6 -136.1C121.4 -124.8 127 -122.2 134.5 -119.1C141.9 -116.1 151.4 -112.6 151.2 -104.4C151.1 -96.2 141.3 -83.3 148.8 -78.1C156.2 -72.8 180.9 -75.2 181.3 -68.7C181.7 -62.3 157.8 -47 155.5 -38.3C153.2 -29.7 172.4 -27.6 183.9 -22.3C195.4 -17 199.1 -8.5 202.8 0L0 0Z" fill="#007772"></path><path d="M0 -135.2C5 -131.5 9.9 -127.7 15.6 -128.3C21.2 -128.9 27.5 -133.7 32.4 -131.3C37.2 -128.8 40.5 -119 41 -108C41.4 -97 39 -84.8 45.9 -87.4C52.8 -90.1 68.9 -107.6 75.7 -109.7C82.5 -111.7 79.9 -98.3 80.4 -90.8C80.9 -83.2 84.6 -81.4 89.6 -79.4C94.6 -77.4 100.9 -75 100.8 -69.6C100.7 -64.1 94.2 -55.5 99.2 -52C104.1 -48.6 120.6 -50.1 120.9 -45.8C121.1 -41.5 105.2 -31.3 103.6 -25.5C102.1 -19.8 114.9 -18.4 122.6 -14.9C130.3 -11.4 132.7 -5.7 135.2 0L0 0Z" fill="#008a73"></path><path d="M0 -67.6C2.5 -65.7 5 -63.9 7.8 -64.2C10.6 -64.4 13.8 -66.9 16.2 -65.6C18.6 -64.4 20.2 -59.5 20.5 -54C20.7 -48.5 19.5 -42.4 22.9 -43.7C26.4 -45 34.5 -53.8 37.8 -54.8C41.2 -55.9 39.9 -49.2 40.2 -45.4C40.5 -41.6 42.3 -40.7 44.8 -39.7C47.3 -38.7 50.5 -37.5 50.4 -34.8C50.4 -32.1 47.1 -27.8 49.6 -26C52.1 -24.3 60.3 -25.1 60.4 -22.9C60.6 -20.8 52.6 -15.7 51.8 -12.8C51.1 -9.9 57.5 -9.2 61.3 -7.4C65.1 -5.7 66.4 -2.8 67.6 0L0 0Z" fill="#009473"></path></g></svg>